  0
SECTION
  2
BLOCKS
  0
ENDSEC
  0
SECTION
  2
ENTITIES
  0
LINE
  8
0
 10
149.964
 20
0.349136
 11
149.964
 21
0.685547
  0
LINE
  8
0
 10
149.964
 20
0.685547
 11
149.878
 21
2.29999
  0
LINE
  8
0
 10
149.878
 20
2.29999
 11
149.878
 21
2.29999
  0
LINE
  8
0
 10
149.878
 20
2.29999
 11
149.872
 21
2.42409
  0
LINE
  8
0
 10
149.872
 20
2.42409
 11
130.001
 21
375
  0
LINE
  8
0
 10
130.001
 20
375
 11
129.577
 21
382.401
  0
LINE
  8
0
 10
129.577
 20
382.401
 11
129.127
 21
389.313
  0
LINE
  8
0
 10
129.127
 20
389.313
 11
128.659
 21
395.753
  0
LINE
  8
0
 10
128.659
 20
395.753
 11
128.395
 21
399.05
  0
LINE
  8
0
 10
128.395
 20
399.05
 11
128.299
 21
400.283
  0
LINE
  8
0
 10
128.299
 20
400.283
 11
128.255
 21
400.787
  0
LINE
  8
0
 10
128.255
 20
400.787
 11
128.179
 21
401.737
  0
LINE
  8
0
 10
128.179
 20
401.737
 11
127.691
 21
407.28
  0
LINE
  8
0
 10
127.691
 20
407.28
 11
127.202
 21
412.398
  0
LINE
  8
0
 10
127.202
 20
412.398
 11
127.088
 21
413.5
  0
LINE
  8
0
 10
127.088
 20
413.5
 11
127.09
 21
413.5
  0
LINE
  8
0
 10
127.09
 20
413.5
 11
127.079
 21
413.613
  0
LINE
  8
0
 10
127.079
 20
413.613
 11
126.967
 21
414.66
  0
LINE
  8
0
 10
126.967
 20
414.66
 11
126.713
 21
417.108
  0
LINE
  8
0
 10
126.713
 20
417.108
 11
126.229
 21
421.424
  0
LINE
  8
0
 10
126.229
 20
421.424
 11
125.751
 21
425.363
  0
LINE
  8
0
 10
125.751
 20
425.363
 11
125.283
 21
428.94
  0
LINE
  8
0
 10
125.283
 20
428.94
 11
124.824
 21
432.172
  0
LINE
  8
0
 10
124.824
 20
432.172
 11
124.378
 21
435.074
  0
LINE
  8
0
 10
124.378
 20
435.074
 11
123.946
 21
437.662
  0
LINE
  8
0
 10
123.946
 20
437.662
 11
123.527
 21
439.952
  0
LINE
  8
0
 10
123.527
 20
439.952
 11
123.124
 21
441.96
  0
LINE
  8
0
 10
123.124
 20
441.96
 11
122.737
 21
443.701
  0
LINE
  8
0
 10
122.737
 20
443.701
 11
122.676
 21
443.945
  0
LINE
  8
0
 10
122.676
 20
443.945
 11
122.642
 21
444.097
  0
LINE
  8
0
 10
122.642
 20
444.097
 11
122.562
 21
444.406
  0
LINE
  8
0
 10
122.562
 20
444.406
 11
122.366
 21
445.192
  0
LINE
  8
0
 10
122.366
 20
445.192
 11
122.252
 21
445.595
  0
LINE
  8
0
 10
122.252
 20
445.595
 11
122.186
 21
445.849
  0
LINE
  8
0
 10
122.186
 20
445.849
 11
122.116
 21
446.075
  0
LINE
  8
0
 10
122.116
 20
446.075
 11
122.011
 21
446.448
  0
LINE
  8
0
 10
122.011
 20
446.448
 11
121.673
 21
447.486
  0
LINE
  8
0
 10
121.673
 20
447.486
 11
121.352
 21
448.32
  0
LINE
  8
0
 10
121.352
 20
448.32
 11
121.048
 21
448.967
  0
LINE
  8
0
 10
121.048
 20
448.967
 11
120.76
 21
449.443
  0
LINE
  8
0
 10
120.76
 20
449.443
 11
120.491
 21
449.763
  0
LINE
  8
0
 10
120.491
 20
449.763
 11
120.238
 21
449.943
  0
LINE
  8
0
 10
120.238
 20
449.943
 11
120
 21
450
  0
LINE
  8
0
 10
120
 20
450
 11
114.494
 21
449.943
  0
LINE
  8
0
 10
114.494
 20
449.943
 11
109.07
 21
449.763
  0
LINE
  8
0
 10
109.07
 20
449.763
 11
108.576
 21
449.733
  0
LINE
  8
0
 10
108.576
 20
449.733
 11
108.513
 21
449.73
  0
LINE
  8
0
 10
108.513
 20
449.73
 11
103.738
 21
449.443
  0
LINE
  8
0
 10
103.738
 20
449.443
 11
98.5078
 21
448.967
  0
LINE
  8
0
 10
98.5078
 20
448.967
 11
93.3899
 21
448.32
  0
LINE
  8
0
 10
93.3899
 20
448.32
 11
88.3941
 21
447.486
  0
LINE
  8
0
 10
88.3941
 20
447.486
 11
83.5305
 21
446.448
  0
LINE
  8
0
 10
83.5305
 20
446.448
 11
82.1694
 21
446.086
  0
LINE
  8
0
 10
82.1694
 20
446.086
 11
81.1494
 21
445.849
  0
LINE
  8
0
 10
81.1494
 20
445.849
 11
80.2155
 21
445.566
  0
LINE
  8
0
 10
80.2155
 20
445.566
 11
78.809
 21
445.192
  0
LINE
  8
0
 10
78.809
 20
445.192
 11
76.5955
 21
444.47
  0
LINE
  8
0
 10
76.5955
 20
444.47
 11
75.3649
 21
444.097
  0
LINE
  8
0
 10
75.3649
 20
444.097
 11
74.8826
 21
443.911
  0
LINE
  8
0
 10
74.8826
 20
443.911
 11
74.2397
 21
443.701
  0
LINE
  8
0
 10
74.2397
 20
443.701
 11
69.8325
 21
441.96
  0
LINE
  8
0
 10
69.8325
 20
441.96
 11
65.5976
 21
439.952
  0
LINE
  8
0
 10
65.5976
 20
439.952
 11
61.5449
 21
437.662
  0
LINE
  8
0
 10
61.5449
 20
437.662
 11
57.6845
 21
435.074
  0
LINE
  8
0
 10
57.6845
 20
435.074
 11
54.0264
 21
432.172
  0
LINE
  8
0
 10
54.0264
 20
432.172
 11
50.7522
 21
429.101
  0
LINE
  8
0
 10
50.7522
 20
429.101
 11
50.577
 21
428.94
  0
LINE
  8
0
 10
50.577
 20
428.94
 11
50.4115
 21
428.752
  0
LINE
  8
0
 10
50.4115
 20
428.752
 11
47.3571
 21
425.363
  0
LINE
  8
0
 10
47.3571
 20
425.363
 11
44.3659
 21
421.424
  0
LINE
  8
0
 10
44.3659
 20
421.424
 11
41.6171
 21
417.108
  0
LINE
  8
0
 10
41.6171
 20
417.108
 11
40.4318
 21
414.872
  0
LINE
  8
0
 10
40.4318
 20
414.872
 11
39.7165
 21
413.613
  0
LINE
  8
0
 10
39.7165
 20
413.613
 11
39.6659
 21
413.5
  0
LINE
  8
0
 10
39.6659
 20
413.5
 11
39.7048
 21
413.5
  0
LINE
  8
0
 10
39.7048
 20
413.5
 11
39.1208
 21
412.398
  0
LINE
  8
0
 10
39.1208
 20
412.398
 11
36.8868
 21
407.28
  0
LINE
  8
0
 10
36.8868
 20
407.28
 11
34.9253
 21
401.737
  0
LINE
  8
0
 10
34.9253
 20
401.737
 11
34.708
 21
400.962
  0
LINE
  8
0
 10
34.708
 20
400.962
 11
34.4741
 21
400.283
  0
LINE
  8
0
 10
34.4741
 20
400.283
 11
34.0399
 21
398.582
  0
LINE
  8
0
 10
34.0399
 20
398.582
 11
33.2462
 21
395.753
  0
LINE
  8
0
 10
33.2462
 20
395.753
 11
31.8596
 21
389.313
  0
LINE
  8
0
 10
31.8596
 20
389.313
 11
30.7755
 21
382.401
  0
LINE
  8
0
 10
30.7755
 20
382.401
 11
30.004
 21
375
  0
LINE
  8
0
 10
30.004
 20
375
 11
28.1241
 21
351.5
  0
LINE
  8
0
 10
28.1241
 20
351.5
 11
28.12
 21
351.5
  0
LINE
  8
0
 10
28.12
 20
351.5
 11
27.88
 21
348.5
  0
LINE
  8
0
 10
27.88
 20
348.5
 11
27.8841
 21
348.5
  0
LINE
  8
0
 10
27.8841
 20
348.5
 11
24.1243
 21
301.5
  0
LINE
  8
0
 10
24.1243
 20
301.5
 11
24.1199
 21
301.5
  0
LINE
  8
0
 10
24.1199
 20
301.5
 11
23.8799
 21
298.5
  0
LINE
  8
0
 10
23.8799
 20
298.5
 11
23.8844
 21
298.5
  0
LINE
  8
0
 10
23.8844
 20
298.5
 11
20.1246
 21
251.5
  0
LINE
  8
0
 10
20.1246
 20
251.5
 11
20.1199
 21
251.5
  0
LINE
  8
0
 10
20.1199
 20
251.5
 11
19.8799
 21
248.5
  0
LINE
  8
0
 10
19.8799
 20
248.5
 11
19.8846
 21
248.5
  0
LINE
  8
0
 10
19.8846
 20
248.5
 11
16.1248
 21
201.5
  0
LINE
  8
0
 10
16.1248
 20
201.5
 11
16.1199
 21
201.5
  0
LINE
  8
0
 10
16.1199
 20
201.5
 11
15.8799
 21
198.5
  0
LINE
  8
0
 10
15.8799
 20
198.5
 11
15.8848
 21
198.5
  0
LINE
  8
0
 10
15.8848
 20
198.5
 11
12.125
 21
151.5
  0
LINE
  8
0
 10
12.125
 20
151.5
 11
12.1199
 21
151.5
  0
LINE
  8
0
 10
12.1199
 20
151.5
 11
11.8799
 21
148.5
  0
LINE
  8
0
 10
11.8799
 20
148.5
 11
11.885
 21
148.5
  0
LINE
  8
0
 10
11.885
 20
148.5
 11
8.12526
 21
101.5
  0
LINE
  8
0
 10
8.12526
 20
101.5
 11
8.11984
 21
101.5
  0
LINE
  8
0
 10
8.11984
 20
101.5
 11
7.87984
 21
98.5
  0
LINE
  8
0
 10
7.87984
 20
98.5
 11
7.88527
 21
98.5
  0
LINE
  8
0
 10
7.88527
 20
98.5
 11
4.12549
 21
51.5
  0
LINE
  8
0
 10
4.12549
 20
51.5
 11
4.11981
 21
51.5
  0
LINE
  8
0
 10
4.11981
 20
51.5
 11
3.87981
 21
48.5
  0
LINE
  8
0
 10
3.87981
 20
48.5
 11
3.8855
 21
48.5
  0
LINE
  8
0
 10
3.8855
 20
48.5
 11
2.1256
 21
26.5
  0
LINE
  8
0
 10
2.1256
 20
26.5
 11
2.1198
 21
26.5
  0
LINE
  8
0
 10
2.1198
 20
26.5
 11
1.87979
 21
23.5
  0
LINE
  8
0
 10
1.87979
 20
23.5
 11
1.88562
 21
23.5
  0
LINE
  8
0
 10
1.88562
 20
23.5
 11
1.12566
 21
14
  0
LINE
  8
0
 10
1.12566
 20
14
 11
1.11978
 21
14
  0
LINE
  8
0
 10
1.11978
 20
14
 11
0.879791
 21
11
  0
LINE
  8
0
 10
0.879791
 20
11
 11
0.885666
 21
11
  0
LINE
  8
0
 10
0.885666
 20
11
 11
0.189713
 21
2.29999
  0
LINE
  8
0
 10
0.189713
 20
2.29999
 11
0.183777
 21
2.29999
  0
LINE
  8
0
 10
0.183777
 20
2.29999
 11
0.0533295
 21
0.669296
  0
LINE
  8
0
 10
0.0533295
 20
0.669296
 11
0.0533295
 21
0.595123
  0
LINE
  8
0
 10
0.0533295
 20
0.595123
 11
0.00572205
 21
0
  0
LINE
  8
0
 10
0.00572205
 20
0
 11
149.979
 21
0
  0
LINE
  8
0
 10
149.979
 20
0
 11
149.964
 21
0.349136
  0
LINE
  8
0
 10
62.32
 20
431.5
 11
65.5449
 21
433.662
  0
LINE
  8
0
 10
65.5449
 20
433.662
 11
69.5976
 21
435.952
  0
LINE
  8
0
 10
69.5976
 20
435.952
 11
73.8325
 21
437.96
  0
LINE
  8
0
 10
73.8325
 20
437.96
 11
78.2397
 21
439.701
  0
LINE
  8
0
 10
78.2397
 20
439.701
 11
82.809
 21
441.192
  0
LINE
  8
0
 10
82.809
 20
441.192
 11
87.5305
 21
442.448
  0
LINE
  8
0
 10
87.5305
 20
442.448
 11
92.3941
 21
443.486
  0
LINE
  8
0
 10
92.3941
 20
443.486
 11
92.4781
 21
443.5
  0
LINE
  8
0
 10
92.4781
 20
443.5
 11
106.767
 21
443.5
  0
LINE
  8
0
 10
106.767
 20
443.5
 11
107.26
 21
431.5
  0
LINE
  8
0
 10
107.26
 20
431.5
 11
62.32
 21
431.5
  0
LINE
  8
0
 10
47.7774
 20
416.5
 11
48.3659
 21
417.424
  0
LINE
  8
0
 10
48.3659
 20
417.424
 11
51.3571
 21
421.363
  0
LINE
  8
0
 10
51.3571
 20
421.363
 11
54.5806
 21
424.94
  0
LINE
  8
0
 10
54.5806
 20
424.94
 11
58.0264
 21
428.172
  0
LINE
  8
0
 10
58.0264
 20
428.172
 11
58.4399
 21
428.5
  0
LINE
  8
0
 10
58.4399
 20
428.5
 11
107.383
 21
428.5
  0
LINE
  8
0
 10
107.383
 20
428.5
 11
107.876
 21
416.5
  0
LINE
  8
0
 10
107.876
 20
416.5
 11
47.7774
 21
416.5
  0
LINE
  8
0
 10
40.2569
 20
401.5
 11
40.8868
 21
403.28
  0
LINE
  8
0
 10
40.8868
 20
403.28
 11
43.1208
 21
408.398
  0
LINE
  8
0
 10
43.1208
 20
408.398
 11
45.6171
 21
413.108
  0
LINE
  8
0
 10
45.6171
 20
413.108
 11
45.8668
 21
413.5
  0
LINE
  8
0
 10
45.8668
 20
413.5
 11
107.999
 21
413.5
  0
LINE
  8
0
 10
107.999
 20
413.5
 11
108.492
 21
401.5
  0
LINE
  8
0
 10
108.492
 20
401.5
 11
40.2569
 21
401.5
  0
LINE
  8
0
 10
32.4441
 20
351.5
 11
34.004
 21
371
  0
LINE
  8
0
 10
34.004
 20
371
 11
34.7755
 21
378.401
  0
LINE
  8
0
 10
34.7755
 20
378.401
 11
35.8596
 21
385.313
  0
LINE
  8
0
 10
35.8596
 20
385.313
 11
37.2462
 21
391.753
  0
LINE
  8
0
 10
37.2462
 20
391.753
 11
38.9253
 21
397.737
  0
LINE
  8
0
 10
38.9253
 20
397.737
 11
39.1953
 21
398.5
  0
LINE
  8
0
 10
39.1953
 20
398.5
 11
108.616
 21
398.5
  0
LINE
  8
0
 10
108.616
 20
398.5
 11
110.547
 21
351.5
  0
LINE
  8
0
 10
110.547
 20
351.5
 11
32.4441
 21
351.5
  0
LINE
  8
0
 10
28.4443
 20
301.5
 11
32.2041
 21
348.5
  0
LINE
  8
0
 10
32.2041
 20
348.5
 11
110.67
 21
348.5
  0
LINE
  8
0
 10
110.67
 20
348.5
 11
112.601
 21
301.5
  0
LINE
  8
0
 10
112.601
 20
301.5
 11
28.4443
 21
301.5
  0
LINE
  8
0
 10
24.4445
 20
251.5
 11
28.2043
 21
298.5
  0
LINE
  8
0
 10
28.2043
 20
298.5
 11
112.725
 21
298.5
  0
LINE
  8
0
 10
112.725
 20
298.5
 11
114.656
 21
251.5
  0
LINE
  8
0
 10
114.656
 20
251.5
 11
24.4445
 21
251.5
  0
LINE
  8
0
 10
20.4448
 20
201.5
 11
24.2046
 21
248.5
  0
LINE
  8
0
 10
24.2046
 20
248.5
 11
114.779
 21
248.5
  0
LINE
  8
0
 10
114.779
 20
248.5
 11
116.71
 21
201.5
  0
LINE
  8
0
 10
116.71
 20
201.5
 11
20.4448
 21
201.5
  0
LINE
  8
0
 10
16.445
 20
151.5
 11
20.2048
 21
198.5
  0
LINE
  8
0
 10
20.2048
 20
198.5
 11
116.833
 21
198.5
  0
LINE
  8
0
 10
116.833
 20
198.5
 11
118.765
 21
151.5
  0
LINE
  8
0
 10
118.765
 20
151.5
 11
16.445
 21
151.5
  0
LINE
  8
0
 10
12.4452
 20
101.5
 11
16.205
 21
148.5
  0
LINE
  8
0
 10
16.205
 20
148.5
 11
118.888
 21
148.5
  0
LINE
  8
0
 10
118.888
 20
148.5
 11
120.819
 21
101.5
  0
LINE
  8
0
 10
120.819
 20
101.5
 11
12.4452
 21
101.5
  0
LINE
  8
0
 10
8.44547
 20
51.5
 11
12.2052
 21
98.5
  0
LINE
  8
0
 10
12.2052
 20
98.5
 11
120.942
 21
98.5
  0
LINE
  8
0
 10
120.942
 20
98.5
 11
122.873
 21
51.5
  0
LINE
  8
0
 10
122.873
 20
51.5
 11
8.44547
 21
51.5
  0
LINE
  8
0
 10
6.44557
 20
26.5
 11
8.20547
 21
48.5
  0
LINE
  8
0
 10
8.20547
 20
48.5
 11
122.997
 21
48.5
  0
LINE
  8
0
 10
122.997
 20
48.5
 11
123.901
 21
26.5
  0
LINE
  8
0
 10
123.901
 20
26.5
 11
6.44557
 21
26.5
  0
LINE
  8
0
 10
5.44563
 20
14
 11
6.2056
 21
23.5
  0
LINE
  8
0
 10
6.2056
 20
23.5
 11
124.024
 21
23.5
  0
LINE
  8
0
 10
124.024
 20
23.5
 11
124.414
 21
14
  0
LINE
  8
0
 10
124.414
 20
14
 11
5.44563
 21
14
  0
LINE
  8
0
 10
4.50969
 20
2.29999
 11
5.20564
 21
11
  0
LINE
  8
0
 10
5.20564
 20
11
 11
124.538
 21
11
  0
LINE
  8
0
 10
124.538
 20
11
 11
124.895
 21
2.29999
  0
LINE
  8
0
 10
124.895
 20
2.29999
 11
4.50969
 21
2.29999
  0
ENDSEC
  0
SECTION
  2
OBJECTS
  0
DICTIONARY
  0
ENDSEC
  0
EOF
